<svg xmlns="http://www.w3.org/2000/svg" viewBox="0 0 256 256" role="img" aria-label="Microscope icon">
  <defs>
    <linearGradient id="g1" x1="0" y1="0" x2="1" y2="1">
      <stop offset="0" stop-color="#0a59d1"/>
      <stop offset="1" stop-color="#0f766e"/>
    </linearGradient>
  </defs>
  <rect width="256" height="256" rx="56" fill="#eef4ff"/>
  <circle cx="128" cy="128" r="100" fill="url(#g1)" opacity="0.14"/>
  <rect x="92" y="184" width="88" height="16" rx="8" fill="#0f172a"/>
  <rect x="112" y="66" width="20" height="84" rx="10" transform="rotate(-36 122 108)" fill="#0a59d1"/>
  <rect x="120" y="46" width="24" height="20" rx="8" transform="rotate(-36 132 56)" fill="#083f95"/>
  <rect x="134" y="122" width="18" height="42" rx="9" fill="#0f172a"/>
  <path d="M76 164c0-26 20-46 44-46h14v20h-14c-12 0-24 12-24 26 0 11 9 20 20 20h66v16h-66c-22 0-40-16-40-36z" fill="#0f766e"/>
  <circle cx="174" cy="98" r="16" fill="#0a59d1"/>
  <circle cx="174" cy="98" r="7" fill="#ffffff"/>
</svg>
