<svg xmlns="http://www.w3.org/2000/svg" viewBox="0 0 1200 700" role="img" aria-label="Support communication illustration">
  <defs>
    <linearGradient id="bgs" x1="0" y1="0" x2="1" y2="1">
      <stop offset="0" stop-color="#1e293b"/>
      <stop offset="1" stop-color="#0a59d1"/>
    </linearGradient>
  </defs>
  <rect width="1200" height="700" fill="url(#bgs)"/>
  <rect x="120" y="130" width="420" height="330" rx="24" fill="#f8fbff"/>
  <rect x="160" y="190" width="300" height="20" rx="10" fill="#c5d8ff"/>
  <rect x="160" y="230" width="220" height="20" rx="10" fill="#d7e5ff"/>
  <rect x="160" y="300" width="330" height="20" rx="10" fill="#c5d8ff"/>
  <rect x="160" y="340" width="190" height="20" rx="10" fill="#d7e5ff"/>
  <rect x="650" y="210" width="430" height="320" rx="24" fill="#e9f2ff"/>
  <circle cx="760" cy="330" r="48" fill="#0a59d1"/>
  <circle cx="760" cy="320" r="18" fill="#ffffff"/>
  <path d="M722 372c18-22 58-22 76 0" fill="none" stroke="#ffffff" stroke-width="10" stroke-linecap="round"/>
  <rect x="830" y="276" width="190" height="16" rx="8" fill="#9bb9ff"/>
  <rect x="830" y="314" width="160" height="16" rx="8" fill="#b6ccff"/>
  <rect x="830" y="352" width="180" height="16" rx="8" fill="#9bb9ff"/>
  <rect x="830" y="390" width="120" height="16" rx="8" fill="#b6ccff"/>
  <rect x="84" y="84" width="330" height="78" rx="12" fill="#ffffff" fill-opacity="0.16"/>
  <text x="110" y="132" font-size="40" font-family="Arial, sans-serif" fill="#ffffff">Support Workflow</text>
</svg>
