<svg xmlns="http://www.w3.org/2000/svg" viewBox="0 0 1200 700" role="img" aria-label="FFT spectrum illustration">
  <defs>
    <linearGradient id="bg" x1="0" y1="0" x2="1" y2="1">
      <stop offset="0" stop-color="#0a2d66"/>
      <stop offset="1" stop-color="#0a59d1"/>
    </linearGradient>
    <linearGradient id="wave" x1="0" y1="0" x2="1" y2="0">
      <stop offset="0" stop-color="#8ee8ff"/>
      <stop offset="1" stop-color="#8ef4bf"/>
    </linearGradient>
  </defs>
  <rect width="1200" height="700" fill="url(#bg)"/>
  <g stroke="#8eb7ff" stroke-opacity="0.25">
    <path d="M0 100h1200M0 200h1200M0 300h1200M0 400h1200M0 500h1200M0 600h1200"/>
    <path d="M120 0v700M240 0v700M360 0v700M480 0v700M600 0v700M720 0v700M840 0v700M960 0v700M1080 0v700"/>
  </g>
  <path d="M80 450c80-220 140 180 240-20s150-160 220 40 140 120 220-70 170-100 280-30" fill="none" stroke="url(#wave)" stroke-width="14" stroke-linecap="round"/>
  <g fill="#d8ebff">
    <circle cx="180" cy="420" r="8"/>
    <circle cx="352" cy="442" r="8"/>
    <circle cx="540" cy="362" r="8"/>
    <circle cx="780" cy="444" r="8"/>
    <circle cx="1010" cy="356" r="8"/>
  </g>
  <rect x="88" y="84" width="320" height="78" rx="12" fill="#ffffff" fill-opacity="0.18"/>
  <text x="110" y="132" font-size="40" font-family="Arial, sans-serif" fill="#ffffff">FFT Spectrum View</text>
</svg>
