<svg xmlns="http://www.w3.org/2000/svg" viewBox="0 0 1200 700" role="img" aria-label="Particle analysis illustration">
  <defs>
    <linearGradient id="bgp" x1="0" y1="0" x2="1" y2="1">
      <stop offset="0" stop-color="#072749"/>
      <stop offset="1" stop-color="#0f766e"/>
    </linearGradient>
  </defs>
  <rect width="1200" height="700" fill="url(#bgp)"/>
  <g fill="#a6fff0" fill-opacity="0.75">
    <circle cx="170" cy="190" r="26"/>
    <circle cx="280" cy="250" r="14"/>
    <circle cx="400" cy="210" r="20"/>
    <circle cx="500" cy="320" r="16"/>
    <circle cx="650" cy="210" r="28"/>
    <circle cx="740" cy="290" r="12"/>
    <circle cx="840" cy="230" r="24"/>
    <circle cx="960" cy="340" r="15"/>
    <circle cx="1080" cy="260" r="22"/>
    <circle cx="240" cy="470" r="18"/>
    <circle cx="350" cy="420" r="30"/>
    <circle cx="500" cy="520" r="13"/>
    <circle cx="620" cy="420" r="26"/>
    <circle cx="760" cy="470" r="19"/>
    <circle cx="920" cy="450" r="28"/>
    <circle cx="1040" cy="520" r="14"/>
  </g>
  <g stroke="#d6fff8" stroke-opacity="0.55" stroke-width="3">
    <path d="M170 190L280 250L400 210L500 320L650 210L740 290L840 230L960 340L1080 260" fill="none"/>
    <path d="M240 470L350 420L500 520L620 420L760 470L920 450L1040 520" fill="none"/>
  </g>
  <rect x="84" y="84" width="370" height="78" rx="12" fill="#ffffff" fill-opacity="0.16"/>
  <text x="108" y="132" font-size="40" font-family="Arial, sans-serif" fill="#ffffff">Particle Map Preview</text>
</svg>
